<svg xmlns="http://www.w3.org/2000/svg" viewBox="0 0 1781.91 569.97"><defs><style>.cls-1{fill:#fff;}.cls-2{fill:#0078d6;}.cls-3{fill:#f6bd3a;}.cls-4{fill:#eb8c23;}.cls-5{fill:#e35a2b;}.cls-6{fill:#00599c;}.cls-7{fill:#004482;}.cls-8{fill:#659ad2;}.cls-9{fill:#999;}</style></defs><title>20180808 tfc++win</title><g id="font"><rect class="cls-1" width="1781.91" height="569.97"/></g><g id="Слой_1" data-name="Слой 1"><path id="win10" class="cls-2" d="M1361.42,173l143.95-17.68V279.82H1361.42m161.29-126.91L1713.42,128V278.77H1522.71M1361.42,293h143.95V417.8l-143.95-18m161.29-105.12h190.71V444l-190.71-24.17"/><g id="tf"><path class="cls-3" d="M189.37,298.26l46.93-27.12,46.35,27.12L236.3,324.8l-46.93-26Z"/><path class="cls-3" d="M48.58,218.06,236.3,111.9l139.62,79-46.35,80.2L236.3,218.06,95.51,297.68Z"/><path class="cls-4" d="M189.37,404.42V351.34l46.35-26.54,46.93-26.54v53.08L236.3,377.88V431l-46.93,27.11Zm0-106.16-46.93-26.54-46.93,26V244.6L236.3,165V271.14ZM329,244.6V218.06l46.93-27.12L376.5,244l-46.93,27.12Z"/><path class="cls-5" d="M142.44,429.8V271.72l46.35-26,.58,52.51,46.93,26v53.66l-46.93-24.81v105Zm-70.68-146L48.58,270V218.06L95.51,244.6v53.08ZM236.3,218.06V165L329,218.06l.58,53.08Z"/></g><g id="c_" data-name="c++"><path class="cls-6" d="M1018.07,371.07A27.11,27.11,0,0,0,1022,358V212a27.11,27.11,0,0,0-3.89-13L869,285Z"/><path class="cls-7" d="M882.21,454l126.5-73a27,27,0,0,0,9.36-9.9L869,285l-149.1,86.08a27.09,27.09,0,0,0,9.35,9.9l126.5,73C863,458.21,874.93,458.21,882.21,454Z"/><path class="cls-8" d="M1018.07,198.9a27,27,0,0,0-9.36-9.9l-126.5-73c-7.28-4.21-19.21-4.21-26.5,0l-126.5,73C721.92,193.21,716,203.54,716,212V358a27,27,0,0,0,3.9,13.05L869,285Z"/><path class="cls-1" d="M869,387a102,102,0,1,1,88.33-153L913.15,259.5a51,51,0,1,0,0,51L957.3,336A102.39,102.39,0,0,1,869,387Z"/><polygon class="cls-1" points="970.96 279.32 959.63 279.32 959.63 267.99 948.3 267.99 948.3 279.32 936.96 279.32 936.96 290.65 948.3 290.65 948.3 301.99 959.63 301.99 959.63 290.65 970.96 290.65 970.96 279.32"/><polygon class="cls-1" points="1013.46 279.32 1002.13 279.32 1002.13 267.99 990.8 267.99 990.8 279.32 979.46 279.32 979.46 290.65 990.8 290.65 990.8 301.99 1002.13 301.99 1002.13 290.65 1013.46 290.65 1013.46 279.32"/></g><g id="_2_plus" data-name="2 plus"><path class="cls-9" d="M552.7,233.48V279h45.67V290.6H552.7v45.89H539.77V290.6H494.1V279h45.67v-45.5Z"/></g><g id="_1_plus" data-name="1 plus"><path class="cls-9" d="M1198.16,233.48V279h45.67V290.6h-45.67v45.89h-12.93V290.6h-45.67V279h45.67v-45.5Z"/></g></g></svg>